<?xml version="1.0" encoding="utf-8"?>
<!-- Generator: Adobe Illustrator 24.0.1, SVG Export Plug-In . SVG Version: 6.00 Build 0)  -->
<!DOCTYPE svg PUBLIC "-//W3C//DTD SVG 1.1//EN" "http://www.w3.org/Graphics/SVG/1.1/DTD/svg11.dtd" [
	<!ENTITY ns_extend "http://ns.adobe.com/Extensibility/1.0/">
	<!ENTITY ns_ai "http://ns.adobe.com/AdobeIllustrator/10.0/">
	<!ENTITY ns_graphs "http://ns.adobe.com/Graphs/1.0/">
	<!ENTITY ns_vars "http://ns.adobe.com/Variables/1.0/">
	<!ENTITY ns_imrep "http://ns.adobe.com/ImageReplacement/1.0/">
	<!ENTITY ns_sfw "http://ns.adobe.com/SaveForWeb/1.0/">
	<!ENTITY ns_custom "http://ns.adobe.com/GenericCustomNamespace/1.0/">
	<!ENTITY ns_adobe_xpath "http://ns.adobe.com/XPath/1.0/">
]>
<svg version="1.1" id="Capa_1" xmlns:x="&ns_extend;" xmlns:i="&ns_ai;" xmlns:graph="&ns_graphs;"
	 xmlns="http://www.w3.org/2000/svg" xmlns:xlink="http://www.w3.org/1999/xlink" x="0px" y="0px" viewBox="0 0 841.89 595.28"
	 style="enable-background:new 0 0 841.89 595.28;" xml:space="preserve">
<style type="text/css">
	.st0{fill:#145F2C;}
	.st1{fill:#FFFFFF;}
	.st2{fill:#ADA89E;}
</style>
<metadata>
	<sfw  xmlns="&ns_sfw;">
		<slices></slices>
		<sliceSourceBounds  bottomLeftOrigin="true" height="1021.98" width="1019.85" x="-1294.64" y="-884"></sliceSourceBounds>
	</sfw>
</metadata>
<g>
	<path class="st0" d="M-339.72,884c-296.71,0-593.42,0-890.13,0c-0.92-0.34-1.81-0.83-2.75-0.98c-36.41-5.8-62-35.38-62.01-72.08
		c-0.03-292.08-0.03-584.16,0.04-876.23c0-4.96,0.49-10.01,1.52-14.85c7.37-34.47,36.25-57.79,71.59-57.8
		c129.37-0.04,258.74-0.02,388.12-0.02c161.67,0,323.35-0.02,485.02,0.01c33.91,0.01,62.2,21.51,70.89,53.72
		c0.99,3.66,1.77,7.37,2.65,11.06c0,297.41,0,594.82,0,892.24c-0.34,0.91-0.83,1.8-0.98,2.74c-4.99,31.09-26.64,54-57.29,60.62
		C-335.29,882.89-337.5,883.47-339.72,884z M-427.48,5.24c-0.3-0.17-0.61-0.34-0.91-0.51c-0.78,0.84-1.57,1.67-2.32,2.54
		c-19.9,22.84-39.32,46.12-59.79,68.44c-78.31,85.39-164.8,161.8-256.52,232.43c-56.85,43.78-116.06,84.25-175.03,125.05
		c-31.12,21.54-61,44.48-86.95,72.33c-13.09,14.05-21.41,29.95-23.68,48.87c-2.39,19.97,1.64,38.12,16.9,52.49
		c30.3,28.54,66.7,41.67,107.9,42.15c27.98,0.32,54.1-7.46,79.25-19.21c42.79-20,77.15-50.51,107.67-85.85
		c26.17-30.3,48.66-63.31,70.6-96.7c43.84-66.72,80.05-137.63,114.05-209.71c36.01-76.36,71.77-152.83,107.63-229.26
		C-428.21,7.32-427.88,6.27-427.48,5.24z M-502.73,60.02c-0.18-0.19-0.36-0.38-0.54-0.57c-10.9,8.38-21.8,16.76-32.71,25.13
		c-114.2,87.56-238.04,157.82-373.19,207.68c-31.27,11.54-62.05,23.96-90.41,41.74c-30.92,19.39-55.45,44.44-66.88,79.85
		c-15.89,49.17-9.32,96.52,13.95,142.04c0.19,0.36,0.72,0.55,0.91,0.69c0.99-6.43,1.73-12.87,3.02-19.19
		c4.31-21.09,16.61-37.19,31.52-52.1c28.88-28.88,61.47-52.99,94.9-76.12c65.7-45.45,131.4-90.89,193.99-140.65
		c68.37-54.35,133.33-112.47,194.04-175.3C-523.55,82.26-513.19,71.09-502.73,60.02z"/>
	<path class="st1" d="M-427.48,5.24c-0.4,1.02-0.73,2.07-1.2,3.06c-35.86,76.43-71.62,152.91-107.63,229.26
		c-33.99,72.08-70.21,142.98-114.05,209.71c-21.93,33.39-44.43,66.39-70.6,96.7c-30.52,35.34-64.88,65.85-107.67,85.85
		c-25.15,11.76-51.27,19.54-79.25,19.21c-41.2-0.48-77.6-13.61-107.9-42.15c-15.26-14.37-19.29-32.52-16.9-52.49
		c2.27-18.92,10.59-34.82,23.68-48.87c25.95-27.85,55.83-50.79,86.95-72.33c58.97-40.81,118.18-81.27,175.03-125.05
		c91.71-70.63,178.21-147.04,256.52-232.43c20.47-22.32,39.89-45.6,59.79-68.44c0.75-0.86,1.55-1.69,2.32-2.54
		C-428.09,4.91-427.78,5.07-427.48,5.24z"/>
	<path class="st2" d="M-502.73,60.02c-10.46,11.07-20.82,22.24-31.41,33.19c-60.71,62.83-125.67,120.95-194.04,175.3
		c-62.59,49.75-128.29,95.2-193.99,140.65c-33.43,23.13-66.03,47.24-94.9,76.12c-14.91,14.91-27.21,31.01-31.52,52.1
		c-1.29,6.32-2.02,12.76-3.02,19.19c-0.19-0.14-0.73-0.32-0.91-0.69c-23.26-45.52-29.84-92.86-13.95-142.04
		c11.44-35.4,35.96-60.45,66.88-79.85c28.35-17.78,59.13-30.2,90.41-41.74c135.15-49.86,258.99-120.12,373.19-207.68
		c10.91-8.37,21.81-16.75,32.71-25.13C-503.09,59.64-502.91,59.83-502.73,60.02z"/>
</g>
</svg>
